<?xml version="1.0" encoding="utf-8"?>
<!-- Generator: Adobe Illustrator 25.1.0, SVG Export Plug-In . SVG Version: 6.00 Build 0)  -->
<svg version="1.1" id="Layer_1" xmlns="http://www.w3.org/2000/svg" xmlns:xlink="http://www.w3.org/1999/xlink" x="0px" y="0px"
	 viewBox="0 0 200 200" style="enable-background:new 0 0 200 200;" xml:space="preserve">
<path d="M100,43.09c31.38,0,56.91,25.53,56.91,56.91s-25.53,56.91-56.91,56.91S43.09,131.38,43.09,100S68.62,43.09,100,43.09
	 M100,41.09c-32.54,0-58.91,26.38-58.91,58.91s26.38,58.91,58.91,58.91s58.91-26.38,58.91-58.91S132.54,41.09,100,41.09L100,41.09z"
	/>
<path d="M100,15.25c46.73,0,84.75,38.02,84.75,84.75s-38.02,84.75-84.75,84.75S15.25,146.73,15.25,100S53.27,15.25,100,15.25
	 M100,11.25c-49.02,0-88.75,39.74-88.75,88.75s39.74,88.75,88.75,88.75s88.75-39.74,88.75-88.75S149.02,11.25,100,11.25L100,11.25z"
	/>
<path d="M100,7.7c50.9,0,92.3,41.41,92.3,92.3s-41.41,92.3-92.3,92.3S7.7,150.9,7.7,100S49.1,7.7,100,7.7 M100,6.7
	C48.47,6.7,6.7,48.47,6.7,100s41.77,93.3,93.3,93.3s93.3-41.77,93.3-93.3S151.53,6.7,100,6.7L100,6.7z"/>
<g>
	<path d="M52.54,38.34l1.23-0.85l6.76,9.77l6.14-4.25l0.79,1.14l-7.37,5.1L52.54,38.34z"/>
	<path d="M75.04,40.83c-0.93,0.39-1.85,0.58-2.75,0.57c-0.91-0.02-1.75-0.2-2.54-0.54c-0.79-0.35-1.5-0.84-2.11-1.47
		c-0.62-0.64-1.1-1.38-1.46-2.21l-0.01-0.03c-0.35-0.84-0.54-1.71-0.56-2.6c-0.02-0.9,0.12-1.75,0.42-2.56
		c0.3-0.81,0.77-1.54,1.39-2.21c0.62-0.67,1.4-1.2,2.33-1.59c0.93-0.39,1.85-0.58,2.76-0.57c0.9,0.02,1.75,0.2,2.54,0.54
		c0.79,0.35,1.5,0.84,2.11,1.47c0.62,0.64,1.11,1.38,1.46,2.21c0.02,0.01,0.02,0.02,0.01,0.03c0.35,0.84,0.54,1.71,0.56,2.6
		c0.02,0.9-0.12,1.75-0.42,2.56c-0.3,0.81-0.77,1.55-1.39,2.21C76.75,39.9,75.97,40.43,75.04,40.83z M74.54,39.54
		c0.7-0.29,1.29-0.7,1.76-1.21c0.48-0.51,0.83-1.08,1.06-1.71c0.23-0.63,0.33-1.3,0.32-2.01c-0.02-0.71-0.17-1.41-0.47-2.11
		l-0.01-0.03c-0.3-0.7-0.69-1.3-1.19-1.81c-0.5-0.51-1.06-0.9-1.68-1.17c-0.62-0.27-1.29-0.42-1.99-0.44
		c-0.7-0.02-1.4,0.12-2.1,0.41c-0.7,0.29-1.29,0.7-1.76,1.21c-0.48,0.51-0.83,1.08-1.06,1.71c-0.23,0.63-0.33,1.3-0.32,2.01
		c0.02,0.71,0.17,1.41,0.47,2.11l0.01,0.03c0.29,0.7,0.69,1.3,1.19,1.81c0.5,0.51,1.06,0.9,1.68,1.17c0.62,0.27,1.28,0.42,1.99,0.44
		C73.14,39.97,73.84,39.83,74.54,39.54z"/>
	<path d="M81.28,24.41l5.62-1.01c0.81-0.15,1.55-0.16,2.22-0.04c0.67,0.12,1.25,0.34,1.73,0.68c0.38,0.27,0.7,0.6,0.95,1
		c0.25,0.4,0.43,0.87,0.52,1.39l0.01,0.04c0.1,0.55,0.1,1.05,0,1.51c-0.1,0.46-0.28,0.88-0.54,1.25c-0.26,0.37-0.59,0.7-0.99,0.99
		c-0.4,0.28-0.84,0.52-1.34,0.69l4.97,4.61l-1.81,0.33l-4.7-4.39l-0.04,0.01l-3.69,0.66l0.91,5.07l-1.47,0.27L81.28,24.41z
		 M87.97,30.08c0.49-0.09,0.92-0.23,1.31-0.43c0.39-0.2,0.71-0.44,0.97-0.72c0.26-0.28,0.44-0.61,0.55-0.97
		c0.11-0.36,0.13-0.75,0.05-1.17l-0.01-0.04c-0.15-0.81-0.55-1.39-1.22-1.74c-0.67-0.35-1.53-0.43-2.59-0.24L83,25.5l0.95,5.3
		L87.97,30.08z"/>
	<path d="M96.79,22.23l9.59,0.16l-0.02,1.35l-8.09-0.13l-0.07,4.57l7.24,0.12l-0.02,1.35l-7.24-0.12l-0.07,4.66l8.19,0.13
		l-0.02,1.35l-9.69-0.16L96.79,22.23z"/>
	<path d="M111.65,22.9l1.48,0.35l3.05,8.16l6.36-5.94l1.48,0.35l-3.03,12.92l-1.46-0.34l2.46-10.46l-6.33,5.81l-0.07-0.02
		l-3.08-8.01l-2.45,10.44l-1.42-0.33L111.65,22.9z"/>
	<path d="M135.06,30.64l1.33,0.69l-6.11,11.78l-1.33-0.69L135.06,30.64z"/>
	<path d="M140.99,33.83l4.06,2.86c0.61,0.43,1.11,0.9,1.5,1.41c0.39,0.51,0.66,1.04,0.81,1.59c0.15,0.55,0.17,1.1,0.06,1.66
		c-0.11,0.56-0.35,1.11-0.73,1.64l-0.02,0.03c-0.41,0.59-0.89,1.02-1.42,1.3c-0.54,0.28-1.1,0.43-1.7,0.46
		c-0.6,0.03-1.21-0.07-1.83-0.28c-0.62-0.21-1.22-0.52-1.8-0.93l-2.64-1.85l-2.69,3.83l-1.23-0.86L140.99,33.83z M140.75,42.5
		c0.45,0.31,0.89,0.54,1.34,0.69c0.45,0.14,0.88,0.2,1.29,0.18c0.41-0.03,0.79-0.14,1.14-0.33c0.34-0.19,0.64-0.47,0.9-0.83
		l0.02-0.03c0.55-0.78,0.69-1.55,0.44-2.33c-0.25-0.77-0.82-1.47-1.7-2.09l-2.75-1.93l-3.37,4.79L140.75,42.5z"/>
	<path d="M146.12,55.27c-0.74-0.76-1.3-1.57-1.67-2.44c-0.37-0.87-0.57-1.84-0.62-2.91l1.43-0.11c0.04,0.94,0.19,1.77,0.47,2.49
		c0.27,0.72,0.73,1.41,1.38,2.07c0.63,0.64,1.28,1,1.96,1.09c0.68,0.09,1.25-0.1,1.72-0.56l0.03-0.03c0.22-0.21,0.38-0.44,0.48-0.69
		c0.1-0.24,0.14-0.53,0.11-0.85c-0.03-0.32-0.15-0.7-0.35-1.14c-0.2-0.44-0.49-0.96-0.87-1.56c-0.41-0.66-0.74-1.26-0.98-1.82
		c-0.24-0.55-0.38-1.07-0.42-1.54c-0.04-0.47,0.02-0.92,0.19-1.33c0.16-0.41,0.44-0.8,0.83-1.19l0.03-0.03
		c0.37-0.36,0.79-0.62,1.25-0.78c0.47-0.16,0.95-0.21,1.46-0.15c0.5,0.05,1.01,0.21,1.51,0.46c0.5,0.25,0.98,0.6,1.42,1.05
		c0.68,0.69,1.18,1.4,1.49,2.1c0.32,0.71,0.52,1.5,0.61,2.37l-1.44,0.19c-0.07-0.8-0.25-1.5-0.52-2.1s-0.65-1.15-1.13-1.64
		c-0.61-0.62-1.24-0.97-1.89-1.04c-0.65-0.07-1.19,0.1-1.62,0.53l-0.03,0.03c-0.23,0.22-0.39,0.45-0.5,0.7
		c-0.1,0.24-0.14,0.54-0.1,0.87c0.04,0.34,0.16,0.73,0.36,1.18c0.21,0.45,0.51,0.99,0.92,1.62c0.8,1.29,1.24,2.38,1.32,3.29
		c0.08,0.91-0.25,1.72-0.97,2.42l-0.03,0.03c-0.41,0.4-0.85,0.68-1.34,0.84c-0.49,0.16-0.99,0.22-1.5,0.17
		c-0.51-0.05-1.02-0.21-1.54-0.49C147.07,56.11,146.58,55.74,146.12,55.27z"/>
	<path d="M153.73,64.79c-0.45-0.69-0.76-1.38-0.92-2.08c-0.16-0.7-0.18-1.39-0.04-2.06s0.44-1.32,0.89-1.94
		c0.46-0.62,1.08-1.18,1.86-1.7l6.45-4.23l0.82,1.25l-6.37,4.18c-1.2,0.79-1.93,1.7-2.18,2.72c-0.25,1.02-0.03,2.06,0.67,3.13
		c0.67,1.02,1.51,1.64,2.52,1.84c1.01,0.2,2.12-0.1,3.33-0.9l6.45-4.23l0.82,1.25l-6.35,4.17c-0.81,0.53-1.6,0.89-2.36,1.07
		c-0.76,0.18-1.48,0.2-2.16,0.07c-0.68-0.14-1.31-0.42-1.88-0.85C154.7,66.05,154.18,65.49,153.73,64.79z"/>
	<path d="M170.76,67.21l0.52,1.42l-5.13,7.04l8.47,2.04l0.52,1.42l-12.45,4.58l-0.52-1.41l10.09-3.71l-8.34-2.08l-0.03-0.07
		l4.98-6.98l-10.07,3.7l-0.5-1.37L170.76,67.21z"/>
	<path d="M177.45,91.57l0.17,4.6c0.04,1.04-0.09,1.99-0.4,2.87c-0.3,0.88-0.74,1.64-1.31,2.29c-0.57,0.65-1.25,1.16-2.04,1.53
		c-0.79,0.37-1.65,0.57-2.59,0.61h-0.04c-0.94,0.04-1.81-0.1-2.63-0.42c-0.82-0.31-1.54-0.77-2.16-1.37
		c-0.62-0.6-1.11-1.33-1.48-2.18c-0.37-0.85-0.58-1.8-0.62-2.83l-0.17-4.6L177.45,91.57z M165.74,96.61
		c0.03,0.83,0.19,1.59,0.48,2.26c0.29,0.67,0.68,1.24,1.16,1.69s1.05,0.8,1.7,1.04c0.65,0.23,1.34,0.34,2.07,0.31l0.04,0
		c0.73-0.03,1.41-0.18,2.04-0.46c0.63-0.28,1.17-0.67,1.63-1.16c0.46-0.49,0.81-1.08,1.05-1.77c0.25-0.69,0.35-1.45,0.32-2.29
		l-0.11-3.11l-10.49,0.39L165.74,96.61z"/>
	<path d="M163.06,112.19c0.19-0.99,0.55-1.86,1.06-2.6c0.52-0.74,1.14-1.35,1.86-1.81c0.73-0.47,1.53-0.78,2.4-0.94
		c0.87-0.16,1.76-0.15,2.65,0.02l0.04,0.01c0.89,0.17,1.72,0.5,2.48,0.98c0.76,0.48,1.39,1.07,1.89,1.77c0.5,0.7,0.86,1.5,1.07,2.39
		c0.21,0.89,0.22,1.83,0.03,2.82c-0.19,0.99-0.54,1.86-1.06,2.6c-0.52,0.74-1.14,1.35-1.86,1.81c-0.73,0.46-1.53,0.78-2.4,0.94
		c-0.87,0.16-1.76,0.15-2.65-0.02c-0.01,0.01-0.03,0.01-0.04-0.01c-0.89-0.17-1.72-0.5-2.48-0.98s-1.39-1.07-1.89-1.77
		c-0.5-0.7-0.86-1.5-1.07-2.39C162.88,114.12,162.87,113.18,163.06,112.19z M164.41,112.49c-0.14,0.74-0.14,1.46,0.02,2.14
		c0.16,0.68,0.44,1.29,0.83,1.83c0.4,0.54,0.9,1,1.49,1.38s1.27,0.64,2.01,0.78l0.04,0.01c0.74,0.14,1.47,0.15,2.17,0.02
		c0.7-0.13,1.34-0.38,1.91-0.74c0.57-0.37,1.06-0.84,1.47-1.41c0.41-0.57,0.68-1.23,0.82-1.98c0.14-0.74,0.14-1.46-0.02-2.14
		c-0.16-0.68-0.44-1.29-0.83-1.83c-0.4-0.54-0.9-1-1.49-1.38c-0.6-0.38-1.27-0.64-2.01-0.78l-0.04-0.01
		c-0.74-0.14-1.47-0.15-2.17-0.02c-0.7,0.13-1.34,0.38-1.91,0.74c-0.57,0.37-1.06,0.83-1.47,1.41
		C164.83,111.08,164.55,111.74,164.41,112.49z"/>
	<path d="M173.23,126.35l-0.58,1.38l-10.96-4.6l-2.89,6.89l-1.28-0.54l3.47-8.27L173.23,126.35z"/>
	<path d="M152.93,136.36c0.57-0.83,1.25-1.49,2.02-1.96c0.77-0.47,1.58-0.78,2.43-0.91c0.85-0.13,1.71-0.1,2.58,0.1
		c0.86,0.2,1.67,0.56,2.42,1.08l0.03,0.02c0.75,0.52,1.37,1.15,1.87,1.89c0.5,0.74,0.84,1.54,1.02,2.38
		c0.18,0.84,0.18,1.71,0.02,2.61c-0.17,0.9-0.54,1.76-1.11,2.6c-0.57,0.83-1.25,1.48-2.02,1.96c-0.77,0.47-1.58,0.78-2.44,0.91
		c-0.85,0.13-1.71,0.1-2.57-0.1c-0.86-0.2-1.67-0.56-2.42-1.08c-0.02,0-0.03,0-0.03-0.02c-0.75-0.52-1.37-1.15-1.88-1.89
		c-0.5-0.74-0.84-1.54-1.02-2.38c-0.18-0.84-0.18-1.71-0.02-2.61C151.99,138.06,152.36,137.2,152.93,136.36z M154.05,137.18
		c-0.43,0.63-0.71,1.28-0.84,1.97c-0.13,0.69-0.12,1.36,0.03,2.01c0.15,0.65,0.42,1.27,0.81,1.86c0.39,0.59,0.9,1.09,1.53,1.52
		l0.03,0.02c0.62,0.43,1.28,0.73,1.98,0.89c0.69,0.16,1.38,0.19,2.05,0.09c0.67-0.1,1.31-0.34,1.91-0.7
		c0.6-0.36,1.12-0.85,1.55-1.48c0.43-0.62,0.71-1.28,0.84-1.97c0.13-0.69,0.12-1.36-0.03-2.01c-0.15-0.66-0.42-1.28-0.81-1.86
		c-0.39-0.59-0.9-1.09-1.53-1.52l-0.03-0.02c-0.63-0.43-1.28-0.73-1.98-0.89c-0.69-0.16-1.38-0.19-2.05-0.09
		c-0.67,0.1-1.31,0.34-1.91,0.7C154.99,136.06,154.48,136.56,154.05,137.18z"/>
	<path d="M156.52,153.56l-4.18,3.88c-0.6,0.56-1.22,0.97-1.84,1.23c-0.63,0.26-1.24,0.38-1.82,0.36c-0.46-0.02-0.91-0.13-1.34-0.33
		c-0.43-0.2-0.83-0.5-1.19-0.89l-0.03-0.03c-0.38-0.41-0.65-0.83-0.82-1.27c-0.17-0.44-0.24-0.89-0.23-1.34
		c0.02-0.46,0.12-0.91,0.3-1.36c0.18-0.45,0.43-0.89,0.75-1.31l-6.68-1.2l1.35-1.25l6.33,1.16l0.03-0.03l2.75-2.55l-3.51-3.78
		l1.1-1.02L156.52,153.56z M147.83,152.4c-0.36,0.34-0.65,0.69-0.87,1.07s-0.36,0.75-0.43,1.13c-0.06,0.38-0.04,0.75,0.06,1.11
		c0.1,0.36,0.3,0.7,0.59,1.01l0.03,0.03c0.56,0.6,1.21,0.87,1.96,0.8c0.75-0.07,1.52-0.47,2.31-1.2l3.01-2.79l-3.66-3.94
		L147.83,152.4z"/>
	<path d="M128.98,157.36c0.94-0.49,1.89-0.77,2.83-0.87c0.94-0.09,1.93,0,2.97,0.28l-0.32,1.4c-0.91-0.24-1.75-0.34-2.52-0.29
		c-0.77,0.05-1.57,0.28-2.39,0.7c-0.8,0.41-1.34,0.93-1.62,1.55c-0.28,0.62-0.28,1.23,0.02,1.81l0.02,0.03
		c0.14,0.27,0.31,0.49,0.51,0.67c0.2,0.17,0.46,0.29,0.78,0.35c0.32,0.06,0.71,0.07,1.19,0.01c0.47-0.06,1.06-0.18,1.75-0.36
		c0.75-0.2,1.43-0.34,2.03-0.4c0.6-0.07,1.13-0.05,1.6,0.05c0.47,0.1,0.87,0.29,1.21,0.57c0.34,0.28,0.64,0.66,0.89,1.14l0.02,0.03
		c0.24,0.46,0.36,0.94,0.37,1.43c0.01,0.49-0.08,0.97-0.29,1.44c-0.2,0.47-0.5,0.9-0.88,1.31c-0.39,0.41-0.86,0.75-1.43,1.04
		c-0.86,0.44-1.68,0.71-2.45,0.8c-0.77,0.09-1.58,0.05-2.44-0.12l0.25-1.43c0.78,0.17,1.5,0.21,2.16,0.13
		c0.66-0.08,1.29-0.28,1.9-0.59c0.78-0.4,1.3-0.9,1.56-1.49c0.26-0.6,0.25-1.16-0.02-1.7l-0.02-0.03c-0.14-0.28-0.32-0.51-0.52-0.68
		c-0.2-0.17-0.47-0.29-0.8-0.36s-0.74-0.07-1.24,0c-0.49,0.06-1.1,0.19-1.82,0.39c-1.47,0.38-2.64,0.48-3.53,0.28
		c-0.89-0.2-1.56-0.74-2.03-1.64l-0.02-0.03c-0.26-0.51-0.4-1.02-0.41-1.53c-0.01-0.51,0.08-1.01,0.29-1.48
		c0.2-0.47,0.51-0.91,0.92-1.33C127.9,158.01,128.4,157.66,128.98,157.36z"/>
	<path d="M126.87,172.94l-1.41,0.5l-4.47-12.5l1.41-0.5L126.87,172.94z"/>
	<path d="M116.78,174.47l4.36-0.93l0.29,1.35l-10.18,2.18l-0.29-1.35l4.36-0.93l-2.49-11.62l1.46-0.31L116.78,174.47z"/>
	<path d="M95.01,177.65l-1.4-0.1l-5.07-13.77l1.61,0.12l1.3,3.61l7.2,0.52l1.82-3.38l1.53,0.11L95.01,177.65z M91.94,168.89
		l2.52,6.97l3.51-6.53L91.94,168.89z"/>
	<path d="M82.7,176.04l-1.45-0.46l-2.44-8.36l-6.79,5.46l-1.45-0.46l3.99-12.66l1.43,0.45l-3.23,10.25l6.75-5.33l0.07,0.02
		l2.48,8.21l3.22-10.23l1.39,0.44L82.7,176.04z"/>
	<path d="M65.22,169.65l-8.32-4.78l0.67-1.17l7.02,4.03l2.28-3.96l-6.28-3.61l0.67-1.17l6.28,3.61l2.32-4.04l-7.1-4.08l0.67-1.17
		l8.4,4.83L65.22,169.65z"/>
	<path d="M48.22,157.94l-1.11-1.01l8.94-9.81l1.11,1.01L48.22,157.94z"/>
	<path d="M43.3,153.32l-3.19-3.81c-0.48-0.57-0.84-1.15-1.08-1.75c-0.24-0.6-0.37-1.18-0.37-1.74c0-0.57,0.12-1.1,0.36-1.62
		c0.25-0.51,0.62-0.98,1.13-1.4l0.03-0.02c0.55-0.46,1.12-0.76,1.71-0.89c0.59-0.13,1.18-0.13,1.76-0.01
		c0.59,0.13,1.15,0.37,1.7,0.74c0.55,0.37,1.05,0.82,1.5,1.36l2.07,2.47l3.59-3.01l0.96,1.15L43.3,153.32z M45.77,145
		c-0.35-0.42-0.72-0.75-1.12-1.01c-0.4-0.26-0.8-0.42-1.2-0.5c-0.41-0.08-0.8-0.07-1.18,0.02c-0.38,0.1-0.74,0.29-1.08,0.57
		l-0.03,0.02c-0.73,0.61-1.07,1.32-1.03,2.14c0.05,0.81,0.41,1.63,1.11,2.46l2.16,2.58l4.49-3.76L45.77,145z"/>
	<path d="M34.7,142.13l-0.8-1.27l11.21-7.09l0.8,1.27L34.7,142.13z"/>
	<path d="M41.51,126.61c0.45,0.96,0.7,1.92,0.75,2.86c0.05,0.94-0.08,1.93-0.4,2.95l-1.39-0.38c0.28-0.9,0.41-1.73,0.4-2.5
		c-0.02-0.77-0.22-1.58-0.61-2.41c-0.38-0.81-0.87-1.38-1.48-1.69c-0.61-0.31-1.21-0.33-1.81-0.05l-0.03,0.02
		c-0.28,0.13-0.5,0.29-0.68,0.48c-0.18,0.19-0.31,0.45-0.39,0.76c-0.08,0.32-0.1,0.71-0.06,1.19c0.04,0.48,0.14,1.06,0.29,1.76
		c0.17,0.76,0.28,1.44,0.32,2.04c0.04,0.6,0,1.13-0.12,1.59c-0.12,0.46-0.33,0.86-0.62,1.19c-0.29,0.33-0.69,0.61-1.18,0.84
		l-0.03,0.02c-0.47,0.22-0.95,0.32-1.44,0.31c-0.49-0.01-0.97-0.12-1.42-0.34c-0.46-0.22-0.88-0.53-1.27-0.94
		c-0.39-0.4-0.72-0.89-0.98-1.47c-0.41-0.88-0.64-1.71-0.7-2.49c-0.06-0.77,0.02-1.58,0.22-2.43l1.42,0.31
		c-0.2,0.77-0.27,1.49-0.21,2.16c0.06,0.66,0.23,1.3,0.51,1.92c0.37,0.79,0.84,1.33,1.43,1.62c0.59,0.29,1.15,0.3,1.7,0.05
		l0.03-0.02c0.29-0.13,0.52-0.3,0.7-0.49c0.18-0.19,0.31-0.46,0.39-0.78c0.08-0.33,0.1-0.74,0.05-1.24
		c-0.04-0.5-0.15-1.11-0.32-1.84c-0.32-1.48-0.37-2.66-0.13-3.54c0.23-0.88,0.81-1.53,1.73-1.96l0.03-0.02
		c0.52-0.24,1.03-0.35,1.54-0.34c0.51,0.01,1,0.13,1.47,0.35c0.46,0.22,0.89,0.55,1.29,0.98C40.9,125.5,41.23,126.01,41.51,126.61z"
		/>
	<path d="M37.4,114.35c0.23,0.93,0.27,1.84,0.11,2.7c-0.15,0.87-0.46,1.67-0.91,2.39c-0.45,0.72-1.05,1.35-1.78,1.87
		c-0.73,0.52-1.56,0.9-2.48,1.12l-0.04,0.01c-0.91,0.22-1.81,0.27-2.7,0.14c-0.89-0.13-1.71-0.41-2.46-0.83
		c-0.75-0.43-1.39-1-1.94-1.71c-0.54-0.71-0.93-1.54-1.16-2.49c-0.14-0.59-0.22-1.13-0.24-1.63c-0.02-0.5,0.01-0.97,0.09-1.42
		c0.08-0.45,0.2-0.87,0.37-1.28c0.17-0.41,0.37-0.8,0.6-1.2l1.31,0.73c-0.38,0.68-0.66,1.37-0.84,2.09
		c-0.18,0.71-0.16,1.51,0.06,2.4c0.17,0.71,0.47,1.34,0.89,1.88c0.42,0.54,0.92,0.98,1.51,1.31c0.59,0.33,1.24,0.54,1.94,0.64
		c0.71,0.09,1.43,0.05,2.16-0.13l0.04-0.01c0.75-0.18,1.41-0.48,2-0.89s1.06-0.9,1.43-1.46s0.62-1.19,0.75-1.86
		c0.13-0.68,0.11-1.37-0.07-2.08c-0.22-0.88-0.56-1.61-1.04-2.16c-0.48-0.56-1.09-1.07-1.83-1.54l0.71-1.19
		c0.42,0.25,0.82,0.52,1.18,0.81c0.36,0.29,0.7,0.63,0.99,1c0.3,0.37,0.56,0.78,0.79,1.23C37.07,113.25,37.25,113.77,37.4,114.35z"
		/>
	<path d="M22.72,108.18l-0.14-1.49l13.21-1.26l0.14,1.49L22.72,108.18z"/>
	<path d="M22.11,101.31l0.08-1.4l11.08-7.77l-10.62-0.58l0.08-1.46l13.25,0.72l-0.07,1.19l-11.33,7.96l10.87,0.59l-0.08,1.46
		L22.11,101.31z"/>
	<path d="M25.97,81.36l-1.13,4.31l-1.34-0.35l2.64-10.07l1.34,0.35l-1.13,4.31l11.5,3.01l-0.38,1.45L25.97,81.36z"/>
	<path d="M27.81,70.86l4.1-8.67l1.22,0.58l-3.46,7.32l4.13,1.95l3.1-6.55l1.22,0.58l-3.1,6.55l4.22,1.99l3.5-7.4l1.22,0.58
		l-4.14,8.76L27.81,70.86z"/>
	<path d="M37.69,55.91l-2.61,3.61l-1.12-0.81l6.1-8.43l1.12,0.81l-2.61,3.61l9.63,6.97l-0.88,1.21L37.69,55.91z"/>
</g>
</svg>
